<?xml version="1.0" encoding="UTF-8"?>
<svg id="Layer_1" data-name="Layer 1" xmlns="http://www.w3.org/2000/svg" viewBox="0 0 720 720">
  <defs>
    <style>
      .cls-1 {
        fill: #64616c;
      }

      .cls-2 {
        fill: #00a0ff;
      }

      .cls-3 {
        fill: #47444b;
      }
    </style>
  </defs>
  <g>
    <path class="cls-3" d="m252.14,535.19h-6.48c-.73,0-1.32-.18-1.79-.54s-.8-.81-1.01-1.35l-3.36-9.19h-18.65l-3.36,9.19c-.17.48-.49.91-.98,1.31-.49.39-1.08.59-1.79.59h-6.51l17.69-45.02h8.56l17.69,45.02Zm-29.14-17h14.35l-5.48-14.98c-.25-.66-.52-1.45-.83-2.35-.3-.9-.6-1.88-.89-2.94-.29,1.06-.58,2.04-.86,2.96-.28.91-.56,1.71-.83,2.4l-5.48,14.91Z"/>
    <path class="cls-3" d="m265.78,528.28h18.03v6.91h-26.4v-45.02h8.38v38.11Z"/>
    <path class="cls-3" d="m298.6,528.28h18.03v6.91h-26.4v-45.02h8.38v38.11Z"/>
    <path class="cls-3" d="m363.74,512.68c0,3.3-.55,6.36-1.65,9.17-1.1,2.81-2.65,5.25-4.64,7.3-1.99,2.06-4.39,3.66-7.19,4.81-2.8,1.15-5.91,1.73-9.31,1.73s-6.51-.58-9.33-1.73c-2.81-1.15-5.22-2.76-7.22-4.81-2-2.05-3.55-4.49-4.66-7.3-1.1-2.81-1.65-5.87-1.65-9.17s.55-6.36,1.65-9.17,2.65-5.25,4.66-7.3c2-2.06,4.41-3.66,7.22-4.81,2.81-1.15,5.92-1.73,9.33-1.73s6.51.58,9.31,1.74c2.8,1.16,5.2,2.77,7.19,4.81s3.54,4.47,4.64,7.29c1.1,2.81,1.65,5.87,1.65,9.17Zm-8.59,0c0-2.47-.33-4.69-.98-6.65-.65-1.96-1.59-3.63-2.82-5-1.23-1.37-2.71-2.42-4.47-3.14s-3.73-1.09-5.93-1.09-4.18.36-5.95,1.09c-1.76.73-3.26,1.77-4.5,3.14s-2.18,3.04-2.85,5c-.67,1.96-1,4.18-1,6.65s.33,4.69,1,6.65c.66,1.96,1.61,3.62,2.85,4.98,1.24,1.36,2.74,2.4,4.5,3.13,1.76.73,3.75,1.09,5.95,1.09s4.18-.36,5.93-1.09,3.24-1.77,4.47-3.13c1.22-1.36,2.16-3.02,2.82-4.98.65-1.96.98-4.18.98-6.65Z"/>
    <path class="cls-3" d="m388.49,517.69v17.5h-8.38v-17.5l-16.41-27.53h7.38c.73,0,1.3.18,1.73.53.42.35.78.8,1.07,1.34l8.25,15.04c.48.89.89,1.74,1.25,2.54.35.8.67,1.58.96,2.35.27-.79.58-1.58.92-2.38.34-.8.75-1.63,1.23-2.51l8.19-15.04c.23-.46.57-.88,1.03-1.28.46-.39,1.04-.59,1.74-.59h7.41l-16.38,27.53Z"/>
    <path class="cls-3" d="m433.99,498.35c-.23.46-.49.78-.79.96-.3.19-.66.28-1.07.28s-.88-.16-1.4-.48c-.52-.32-1.13-.68-1.84-1.07-.71-.39-1.53-.75-2.47-1.07-.95-.32-2.06-.48-3.35-.48-1.16,0-2.17.14-3.04.42s-1.59.67-2.18,1.17c-.59.5-1.03,1.09-1.32,1.79-.29.7-.44,1.46-.44,2.29,0,1.06.3,1.94.89,2.65.59.71,1.38,1.31,2.35,1.81s2.09.95,3.33,1.34c1.25.39,2.52.82,3.81,1.26,1.3.45,2.57.97,3.81,1.56,1.25.59,2.36,1.34,3.33,2.24.98.9,1.76,2.01,2.35,3.32s.89,2.9.89,4.76c0,2.04-.35,3.94-1.04,5.71-.7,1.78-1.71,3.32-3.05,4.64s-2.97,2.36-4.9,3.11c-1.93.76-4.14,1.14-6.63,1.14-1.43,0-2.84-.14-4.23-.42-1.39-.28-2.72-.68-4-1.2-1.28-.52-2.47-1.14-3.58-1.87-1.11-.73-2.1-1.54-2.97-2.43l2.43-4.02c.23-.29.5-.53.83-.73.32-.2.68-.3,1.07-.3.52,0,1.08.21,1.68.64.6.43,1.31.9,2.13,1.42.82.52,1.78.99,2.9,1.42,1.11.43,2.44.64,4,.64,2.39,0,4.23-.57,5.54-1.7,1.31-1.13,1.96-2.76,1.96-4.87,0-1.18-.3-2.15-.89-2.9-.59-.75-1.38-1.38-2.35-1.88s-2.09-.94-3.33-1.29c-1.25-.35-2.51-.74-3.8-1.15-1.29-.42-2.55-.91-3.8-1.5-1.25-.58-2.36-1.34-3.33-2.27-.98-.93-1.76-2.1-2.35-3.5s-.89-3.13-.89-5.18c0-1.64.33-3.24.98-4.79.65-1.56,1.61-2.94,2.87-4.14,1.26-1.2,2.8-2.17,4.62-2.9,1.83-.73,3.91-1.09,6.26-1.09,2.66,0,5.11.42,7.35,1.25,2.24.83,4.15,1.99,5.73,3.49l-2.05,3.96Z"/>
    <path class="cls-3" d="m453.32,535.19h-8.41v-45.02h8.41v45.02Z"/>
    <path class="cls-3" d="m503.64,535.19h-6.48c-.73,0-1.32-.18-1.79-.54s-.8-.81-1.01-1.35l-3.36-9.19h-18.65l-3.36,9.19c-.17.48-.49.91-.98,1.31-.49.39-1.08.59-1.79.59h-6.51l17.69-45.02h8.56l17.69,45.02Zm-29.14-17h14.35l-5.48-14.98c-.25-.66-.52-1.45-.83-2.35-.3-.9-.6-1.88-.89-2.94-.29,1.06-.58,2.04-.86,2.96-.28.91-.56,1.71-.83,2.4l-5.48,14.91Z"/>
  </g>
  <g>
    <path class="cls-2" d="m293.72,571.69c.14.35.28.71.41,1.07.13-.37.27-.73.42-1.07s.31-.68.5-1.03l9.68-17.59c.17-.31.35-.49.54-.56.19-.07.45-.1.8-.1h2.85v28.61h-3.39v-21.02c0-.28,0-.58.02-.9.01-.32.03-.65.06-.98l-9.8,17.89c-.33.6-.8.9-1.4.9h-.56c-.6,0-1.06-.3-1.4-.9l-10.02-17.95c.04.35.07.69.09,1.02.02.33.03.64.03.92v21.02h-3.39v-28.61h2.85c.35,0,.61.03.8.1s.37.25.54.56l9.88,17.61c.19.32.35.66.49,1.01Z"/>
    <path class="cls-2" d="m337.51,552.42v3.16h-13.74v9.5h11.12v3.04h-11.12v9.76h13.74v3.15h-17.63v-28.61h17.63Z"/>
    <path class="cls-2" d="m366.56,552.42v3.25h-9.25v25.36h-3.87v-25.36h-9.28v-3.25h22.4Z"/>
    <path class="cls-2" d="m395.53,581.03h-3c-.35,0-.63-.09-.84-.26-.21-.17-.37-.39-.48-.66l-2.68-6.91h-12.84l-2.67,6.91c-.09.24-.25.45-.48.64-.23.19-.51.28-.84.28h-3l11.44-28.61h3.93l11.44,28.61Zm-18.75-10.62h10.68l-4.49-11.64c-.29-.72-.58-1.62-.86-2.7-.15.55-.29,1.05-.43,1.51-.14.46-.28.86-.41,1.21l-4.49,11.62Z"/>
    <path class="cls-2" d="m407.01,577.77h12.38v3.25h-16.25v-28.61h3.87v25.36Z"/>
    <path class="cls-2" d="m442.31,556.89c-.12.2-.25.35-.38.45-.13.1-.31.15-.52.15-.23,0-.49-.11-.79-.34-.3-.23-.68-.48-1.14-.75-.46-.27-1.01-.52-1.66-.75-.65-.23-1.43-.34-2.35-.34-.87,0-1.63.12-2.3.35-.67.23-1.22.55-1.67.95-.45.4-.78.87-1.01,1.41s-.34,1.12-.34,1.75c0,.8.2,1.46.59,1.99.39.53.91.98,1.56,1.35.65.37,1.38.7,2.2.97.82.27,1.66.56,2.52.85s1.7.62,2.52.99c.82.37,1.55.83,2.2,1.39.65.56,1.17,1.24,1.56,2.06.39.81.59,1.81.59,2.99,0,1.25-.21,2.43-.64,3.52-.43,1.1-1.05,2.05-1.87,2.87-.82.81-1.82,1.45-3.01,1.92-1.19.46-2.55.7-4.06.7-1.85,0-3.54-.34-5.06-1.01-1.52-.67-2.83-1.58-3.9-2.73l1.12-1.84c.11-.15.24-.27.39-.37.15-.1.32-.15.51-.15.28,0,.6.15.96.45.36.3.81.63,1.35.99s1.19.69,1.96.99c.76.3,1.7.45,2.8.45.92,0,1.74-.13,2.46-.38s1.33-.61,1.83-1.07.88-1.01,1.15-1.65c.27-.64.4-1.35.4-2.14,0-.87-.2-1.57-.59-2.13-.39-.55-.91-1.02-1.55-1.39-.64-.37-1.37-.69-2.19-.95-.82-.26-1.66-.53-2.52-.8-.86-.27-1.7-.59-2.52-.95-.82-.36-1.55-.83-2.19-1.4-.64-.57-1.16-1.29-1.55-2.15-.39-.86-.59-1.92-.59-3.18,0-1.01.2-1.99.59-2.94.39-.94.96-1.78,1.71-2.52.75-.73,1.67-1.32,2.76-1.76,1.1-.44,2.36-.66,3.78-.66,1.6,0,3.05.25,4.37.76s2.47,1.24,3.45,2.2l-.94,1.84Z"/>
  </g>
  <g>
    <g>
      <polygon class="cls-3" points="520.47 417.27 408.26 222.91 375.64 279.12 455.75 417.27 520.47 417.27"/>
      <polygon class="cls-3" points="397.01 360.91 237.09 360.91 204.55 417.27 429.69 417.27 397.01 360.91"/>
      <polygon class="cls-3" points="315.2 338.36 395.26 200.39 362.51 143.67 250.1 338.36 315.2 338.36"/>
    </g>
    <polygon class="cls-2" points="383.93 338.36 362.61 301.58 341.27 338.36 383.93 338.36"/>
    <polygon class="cls-1" points="429.69 417.27 237.09 360.91 204.55 417.27 429.69 417.27"/>
    <polygon class="cls-1" points="250.1 338.36 395.26 200.39 362.51 143.67 250.1 338.36"/>
    <polygon class="cls-1" points="408.26 222.91 455.75 417.27 520.47 417.27 408.26 222.91"/>
  </g>
</svg>